# xmcd
#
# Track frame offsets: 
#        150
#        14835
#        28157
#        43145
#        57127
#        70421
#        83075
#        101750
#        117700
#        131840
#        151185
#        167663
#        183134
#        193276
#        215917
#
# Disc length: 3289 seconds
#
# Revision: 0
# Processed by: cddbd v1.5.1PL2 Copyright (c) Steve Scherf et al.
# Submitted via: ExactAudioCopy v0.95a5
#
DISCID=e30cd70f
DTITLE=Ray Collins' Hot-Club - Tohuwabohu
DYEAR=2005
DGENRE=Swing
TTITLE0=Yeah, Yeah, Baby You're Right
TTITLE1=Barefoot
TTITLE2=Rock'n'Roll
TTITLE3=Bye Bye Paris
TTITLE4=Elephant Parade
TTITLE5=Don't Drop
TTITLE6=The Hot-Club is Coming to Town
TTITLE7=Great Big Troubles and Joy
TTITLE8=Run Brother Run
TTITLE9=What You Want Me To
TTITLE10=Schlomo's Song
TTITLE11=Nothing but the Boogie
TTITLE12=Tohuwabohu
TTITLE13=Waiting for Crazy
TTITLE14=Data
EXTD=
EXTT0=
EXTT1=
EXTT2=
EXTT3=
EXTT4=
EXTT5=
EXTT6=
EXTT7=
EXTT8=
EXTT9=
EXTT10=
EXTT11=
EXTT12=
EXTT13=
EXTT14=
PLAYORDER=
